<svg id="Layer_1" xmlns="http://www.w3.org/2000/svg" xmlns:xlink="http://www.w3.org/1999/xlink" version="1.1" viewBox="0 0 207.9 22.8" width="207.9" height="22.8">
  <!-- Generator: Adobe Illustrator 29.1.0, SVG Export Plug-In . SVG Version: 2.1.0 Build 142)  -->
  <defs>
    <style>
      .st0 {
        fill: none;
      }

      .st1 {
        mask: url(#mask);
      }

      .st2 {
        fill: #231f20;
      }

      .st3 {
        mask: url(#mask-1);
      }

      .st4 {
        fill: #fff;
      }

      .st5 {
        clip-path: url(#clippath);
      }
    </style>
    <clipPath id="clippath">
      <rect class="st0" x="3.4" y="3.3" width="200" height="16" />
    </clipPath>
    <mask id="mask" x="1.2" y="-2.5" width="204" height="28" maskUnits="userSpaceOnUse">
      <g id="mask0_793_3624">
        <path class="st4" d="M205.2-2.5H1.2v28h204V-2.5Z" />
      </g>
    </mask>
    <mask id="mask-1" x="1.2" y="-2.5" width="204" height="28" maskUnits="userSpaceOnUse">
      <g id="mask1_793_3624">
        <path class="st4" d="M205.2-2.5H1.2v28h204V-2.5Z" />
      </g>
    </mask>
  </defs>
  <g class="st5">
    <g class="st1">
      <g class="st3">
        <g>
          <path class="st2" d="M3.4,13.8h3.3c0,2,1.6,2.8,3.4,2.8s3-.3,3-1.9-2.3-1.9-4.5-2.5c-2.3-.6-4.6-1.5-4.6-4.3s3-4.6,5.7-4.6,6.1,1.4,6.1,4.9h-3.2c-.1-1.8-1.4-2.3-3-2.3s-2.3.4-2.3,1.7.7,1.3,4.6,2.3c1.1.3,4.5,1,4.5,4.4s-2.2,4.9-6.4,4.9-6.5-1.7-6.5-5.4" />
          <path class="st2" d="M17.6,11.3c0-4.5,2.8-8.1,7.5-8.1s6.2,2,6.6,5.5h-3.3c-.2-1.5-1.7-2.7-3.3-2.7-3,0-4.1,2.6-4.1,5.2s1.1,5.1,4.1,5.1,3.2-1.4,3.5-3.4h3.3c-.3,3.8-3,6.2-6.7,6.2s-7.5-3.5-7.5-7.9" />
          <path class="st2" d="M43.6,3.6h3.4v15.3h-3.4v-6.6h-6.2v6.6h-3.4V3.6h3.4v5.9h6.2V3.6Z" />
          <path class="st2" d="M83.2,3.6h3.4v12.5h7.4v2.8h-10.8V3.6Z" />
          <path class="st2" d="M143.2,9.7h7.4v2.6h-7.4v3.7h8.2v2.8h-11.6V3.6h11.4v2.8h-8.1v3.3Z" />
          <path class="st2" d="M122,6.4h-7.4v3.5h6.4v2.6h-6.4v6.3h-3.4V3.6h10.7v2.8Z" />
          <path class="st2" d="M193.8,3.6l6.4,10.2h0V3.6h3.1v15.3h-3.4l-6.3-10.2h0v10.2h-3.1V3.6h3.3Z" />
          <path class="st2" d="M187.6,8.6h-3.2c-.4-1.7-1.6-2.6-3.2-2.6-3,0-4.1,2.6-4.1,5.2s1.1,5.1,4.1,5.1,3.4-1.2,3.6-3.3h-3.4v-2.5h6.4v8.3h-2.1l-.3-1.7c-1.2,1.5-2.7,2.1-4.2,2.1-4.7,0-7.5-3.5-7.5-7.9s2.8-8.1,7.5-8.1,6.1,1.9,6.4,5.4Z" />
          <path class="st2" d="M171.3,3.6h-3.4v15.3h3.4V3.6Z" />
          <path class="st2" d="M165,8.2h-3.3c-.1-1.8-1.4-2.3-3-2.3s-2.3.4-2.3,1.7.7,1.3,4.6,2.3c1.1.3,4.5,1,4.5,4.4s-2.2,4.9-6.4,4.9-6.5-1.7-6.5-5.4h3.3c0,2,1.6,2.8,3.4,2.8s3-.3,3-1.9-2.3-1.9-4.5-2.5c-2.3-.6-4.6-1.5-4.6-4.3s2.9-4.6,5.7-4.6,6.1,1.4,6.1,4.9" />
          <path class="st2" d="M94,11.3c0,4.4,2.8,7.9,7.5,7.9s7.5-3.5,7.5-7.9-2.8-8.1-7.5-8.1-7.5,3.5-7.5,8.1ZM105.6,11.3c0,2.5-1.1,5.1-4.2,5.1s-4.1-2.6-4.1-5.1,1.1-5.2,4.1-5.2,4.1,2.6,4.1,5.2" />
          <path class="st2" d="M49.3,11.3c0,4.4,2.8,7.9,7.5,7.9s7.5-3.5,7.5-7.9-2.8-8.1-7.5-8.1-7.5,3.5-7.5,8.1ZM60.9,11.3c0,2.5-1.1,5.1-4.2,5.1s-4.2-2.6-4.2-5.1,1.1-5.2,4.2-5.2,4.2,2.6,4.2,5.2Z" />
          <path class="st2" d="M65.9,11.3c0,4.4,2.8,7.9,7.5,7.9s7.5-3.5,7.5-7.9-2.8-8.1-7.5-8.1-7.5,3.5-7.5,8.1ZM77.6,11.3c0,2.5-1.1,5.1-4.2,5.1s-4.2-2.6-4.2-5.1,1.1-5.2,4.2-5.2,4.2,2.6,4.2,5.2Z" />
          <path class="st2" d="M124,18.9h6.6c4.7,0,6.9-3.3,6.9-7.7s-3-7.6-6.9-7.6h-6.6v15.3ZM129.7,6.4c3.3,0,4.4,2,4.4,5s-1.9,4.6-3.8,4.6h-3V6.4h2.4Z" />
        </g>
      </g>
    </g>
  </g>
</svg>